<mxfile host="app.diagrams.net" modified="2023-11-07T14:48:50.199Z" agent="Mozilla/5.0 (X11; Linux x86_64) AppleWebKit/537.36 (KHTML, like Gecko) Chrome/118.0.0.0 Safari/537.36" etag="Ivy0Eg2-scls-f6xbNgB" version="22.0.8" type="google">
  <diagram name="003-semantic-translation-centralized" id="lpjZWbk7toMW2u9oxYiJ">
    <mxGraphModel grid="1" page="1" gridSize="10" guides="1" tooltips="1" connect="1" arrows="1" fold="1" pageScale="1" pageWidth="827" pageHeight="1169" math="0" shadow="0">
      <root>
        <mxCell id="0" />
        <mxCell id="1" parent="0" />
        <mxCell id="EHuIXf3F6MjZgLK2pT1I-17" value="&lt;div&gt;&lt;i&gt;This work is licensed under a&lt;/i&gt;&lt;/div&gt;&lt;div&gt;&lt;b&gt;&lt;i&gt;Creative Commons Attribution 4.0 International License&lt;/i&gt;&lt;/b&gt;&lt;/div&gt;" style="text;html=1;strokeColor=none;fillColor=none;align=center;verticalAlign=middle;whiteSpace=wrap;rounded=0;fontSize=20;fontFamily=Architects Daughter;" vertex="1" parent="1">
          <mxGeometry x="80" y="480" width="860" height="60" as="geometry" />
        </mxCell>
        <mxCell id="VESGiPwqasjtIfD7_d7V-1" value="" style="rounded=0;whiteSpace=wrap;html=1;sketch=1;curveFitting=1;jiggle=2;" vertex="1" parent="1">
          <mxGeometry x="90" y="120" width="270" height="130" as="geometry" />
        </mxCell>
        <mxCell id="VESGiPwqasjtIfD7_d7V-2" value="Data" style="shape=cylinder3;whiteSpace=wrap;html=1;boundedLbl=1;backgroundOutline=1;size=15;sketch=1;curveFitting=1;jiggle=2;shadow=1;" vertex="1" parent="1">
          <mxGeometry x="130" y="145" width="60" height="80" as="geometry" />
        </mxCell>
        <mxCell id="VESGiPwqasjtIfD7_d7V-3" style="edgeStyle=orthogonalEdgeStyle;rounded=0;orthogonalLoop=1;jettySize=auto;html=1;entryX=0;entryY=0.25;entryDx=0;entryDy=0;sketch=1;curveFitting=1;jiggle=2;" edge="1" parent="1" target="VESGiPwqasjtIfD7_d7V-11">
          <mxGeometry relative="1" as="geometry">
            <mxPoint x="360" y="190" as="sourcePoint" />
          </mxGeometry>
        </mxCell>
        <mxCell id="VESGiPwqasjtIfD7_d7V-4" value="&lt;b&gt;Domain semantics&lt;/b&gt;" style="shape=document;whiteSpace=wrap;html=1;boundedLbl=1;shadow=1;sketch=1;curveFitting=1;jiggle=2;fillColor=#ffe6cc;strokeColor=#d79b00;" vertex="1" parent="1">
          <mxGeometry x="220" y="150" width="120" height="80" as="geometry" />
        </mxCell>
        <mxCell id="VESGiPwqasjtIfD7_d7V-5" style="edgeStyle=orthogonalEdgeStyle;rounded=0;orthogonalLoop=1;jettySize=auto;html=1;entryX=0;entryY=0.654;entryDx=0;entryDy=0;entryPerimeter=0;" edge="1" parent="1" source="VESGiPwqasjtIfD7_d7V-6" target="VESGiPwqasjtIfD7_d7V-11">
          <mxGeometry relative="1" as="geometry" />
        </mxCell>
        <mxCell id="VESGiPwqasjtIfD7_d7V-6" value="" style="rounded=0;whiteSpace=wrap;html=1;sketch=1;curveFitting=1;jiggle=2;" vertex="1" parent="1">
          <mxGeometry x="90" y="310" width="270" height="130" as="geometry" />
        </mxCell>
        <mxCell id="VESGiPwqasjtIfD7_d7V-7" value="Data" style="shape=cylinder3;whiteSpace=wrap;html=1;boundedLbl=1;backgroundOutline=1;size=15;sketch=1;curveFitting=1;jiggle=2;shadow=1;" vertex="1" parent="1">
          <mxGeometry x="130" y="335" width="60" height="80" as="geometry" />
        </mxCell>
        <mxCell id="VESGiPwqasjtIfD7_d7V-8" value="&lt;b&gt;Domain semantics&lt;/b&gt;" style="shape=document;whiteSpace=wrap;html=1;boundedLbl=1;shadow=1;sketch=1;curveFitting=1;jiggle=2;fillColor=#ffe6cc;strokeColor=#d79b00;" vertex="1" parent="1">
          <mxGeometry x="220" y="340" width="120" height="80" as="geometry" />
        </mxCell>
        <mxCell id="VESGiPwqasjtIfD7_d7V-9" style="edgeStyle=orthogonalEdgeStyle;rounded=0;orthogonalLoop=1;jettySize=auto;html=1;exitX=1;exitY=0.25;exitDx=0;exitDy=0;entryX=0;entryY=0.5;entryDx=0;entryDy=0;" edge="1" parent="1" source="VESGiPwqasjtIfD7_d7V-11" target="VESGiPwqasjtIfD7_d7V-21">
          <mxGeometry relative="1" as="geometry" />
        </mxCell>
        <mxCell id="VESGiPwqasjtIfD7_d7V-10" style="edgeStyle=orthogonalEdgeStyle;rounded=0;orthogonalLoop=1;jettySize=auto;html=1;entryX=0;entryY=0.615;entryDx=0;entryDy=0;entryPerimeter=0;exitX=1;exitY=0.654;exitDx=0;exitDy=0;exitPerimeter=0;" edge="1" parent="1" source="VESGiPwqasjtIfD7_d7V-11" target="VESGiPwqasjtIfD7_d7V-24">
          <mxGeometry relative="1" as="geometry" />
        </mxCell>
        <mxCell id="VESGiPwqasjtIfD7_d7V-11" value="" style="rounded=0;whiteSpace=wrap;html=1;sketch=1;curveFitting=1;jiggle=2;" vertex="1" parent="1">
          <mxGeometry x="440" y="225" width="270" height="130" as="geometry" />
        </mxCell>
        <mxCell id="VESGiPwqasjtIfD7_d7V-12" value="Data" style="shape=cylinder3;whiteSpace=wrap;html=1;boundedLbl=1;backgroundOutline=1;size=15;sketch=1;curveFitting=1;jiggle=2;shadow=1;" vertex="1" parent="1">
          <mxGeometry x="620" y="250" width="60" height="80" as="geometry" />
        </mxCell>
        <mxCell id="VESGiPwqasjtIfD7_d7V-13" value="&lt;b&gt;Unified semantics&lt;/b&gt;" style="shape=document;whiteSpace=wrap;html=1;boundedLbl=1;shadow=1;sketch=1;curveFitting=1;jiggle=2;fillColor=#ffe6cc;strokeColor=#d79b00;" vertex="1" parent="1">
          <mxGeometry x="470" y="255" width="120" height="80" as="geometry" />
        </mxCell>
        <mxCell id="VESGiPwqasjtIfD7_d7V-14" value="" style="shape=image;html=1;verticalLabelPosition=bottom;verticalAlign=top;imageAspect=1;aspect=fixed;image=img/clipart/Gear_128x128.png" vertex="1" parent="1">
          <mxGeometry x="450" y="300" width="42.63" height="50" as="geometry" />
        </mxCell>
        <mxCell id="VESGiPwqasjtIfD7_d7V-15" value="&lt;b&gt;Data Producer&lt;/b&gt;" style="text;html=1;strokeColor=none;fillColor=none;align=center;verticalAlign=middle;whiteSpace=wrap;rounded=0;" vertex="1" parent="1">
          <mxGeometry x="90" y="80" width="270" height="30" as="geometry" />
        </mxCell>
        <mxCell id="VESGiPwqasjtIfD7_d7V-16" value="&lt;b&gt;Data Producer&lt;/b&gt;" style="text;html=1;strokeColor=none;fillColor=none;align=center;verticalAlign=middle;whiteSpace=wrap;rounded=0;" vertex="1" parent="1">
          <mxGeometry x="90" y="270" width="270" height="30" as="geometry" />
        </mxCell>
        <mxCell id="VESGiPwqasjtIfD7_d7V-17" value="" style="shape=umlActor;verticalLabelPosition=bottom;verticalAlign=top;html=1;outlineConnect=0;" vertex="1" parent="1">
          <mxGeometry x="510" y="120" width="30" height="60" as="geometry" />
        </mxCell>
        <mxCell id="VESGiPwqasjtIfD7_d7V-18" value="" style="shape=umlActor;verticalLabelPosition=bottom;verticalAlign=top;html=1;outlineConnect=0;" vertex="1" parent="1">
          <mxGeometry x="570" y="120" width="30" height="60" as="geometry" />
        </mxCell>
        <mxCell id="VESGiPwqasjtIfD7_d7V-19" value="" style="shape=umlActor;verticalLabelPosition=bottom;verticalAlign=top;html=1;outlineConnect=0;" vertex="1" parent="1">
          <mxGeometry x="630" y="120" width="30" height="60" as="geometry" />
        </mxCell>
        <mxCell id="VESGiPwqasjtIfD7_d7V-20" value="&lt;b&gt;Modelling Team&lt;/b&gt;" style="text;html=1;strokeColor=none;fillColor=none;align=center;verticalAlign=middle;whiteSpace=wrap;rounded=0;" vertex="1" parent="1">
          <mxGeometry x="440" y="190" width="270" height="30" as="geometry" />
        </mxCell>
        <mxCell id="VESGiPwqasjtIfD7_d7V-21" value="" style="rounded=0;whiteSpace=wrap;html=1;sketch=1;curveFitting=1;jiggle=2;" vertex="1" parent="1">
          <mxGeometry x="790" y="120" width="140" height="130" as="geometry" />
        </mxCell>
        <mxCell id="VESGiPwqasjtIfD7_d7V-22" value="Data" style="shape=cylinder3;whiteSpace=wrap;html=1;boundedLbl=1;backgroundOutline=1;size=15;sketch=1;curveFitting=1;jiggle=2;shadow=1;" vertex="1" parent="1">
          <mxGeometry x="830" y="135" width="60" height="80" as="geometry" />
        </mxCell>
        <mxCell id="VESGiPwqasjtIfD7_d7V-23" value="&lt;b&gt;Data Consumer&lt;/b&gt;" style="text;html=1;strokeColor=none;fillColor=none;align=center;verticalAlign=middle;whiteSpace=wrap;rounded=0;" vertex="1" parent="1">
          <mxGeometry x="790" y="80" width="140" height="30" as="geometry" />
        </mxCell>
        <mxCell id="VESGiPwqasjtIfD7_d7V-24" value="" style="rounded=0;whiteSpace=wrap;html=1;sketch=1;curveFitting=1;jiggle=2;" vertex="1" parent="1">
          <mxGeometry x="790" y="310" width="140" height="130" as="geometry" />
        </mxCell>
        <mxCell id="VESGiPwqasjtIfD7_d7V-25" value="Data" style="shape=cylinder3;whiteSpace=wrap;html=1;boundedLbl=1;backgroundOutline=1;size=15;sketch=1;curveFitting=1;jiggle=2;shadow=1;" vertex="1" parent="1">
          <mxGeometry x="830" y="335" width="60" height="80" as="geometry" />
        </mxCell>
        <mxCell id="VESGiPwqasjtIfD7_d7V-26" value="&lt;b&gt;Data Consumer&lt;/b&gt;" style="text;html=1;strokeColor=none;fillColor=none;align=center;verticalAlign=middle;whiteSpace=wrap;rounded=0;" vertex="1" parent="1">
          <mxGeometry x="790" y="270" width="140" height="30" as="geometry" />
        </mxCell>
        <mxCell id="VESGiPwqasjtIfD7_d7V-27" value="Centralized semantic translation" style="text;strokeColor=none;fillColor=none;html=1;fontSize=24;fontStyle=1;verticalAlign=middle;align=center;" vertex="1" parent="1">
          <mxGeometry x="90" y="20" width="830" height="40" as="geometry" />
        </mxCell>
      </root>
    </mxGraphModel>
  </diagram>
</mxfile>
